<?xml version="1.0" standalone="no"?><!DOCTYPE svg PUBLIC "-//W3C//DTD SVG 1.1//EN" "http://www.w3.org/Graphics/SVG/1.1/DTD/svg11.dtd"><svg t="1727767100111" class="icon" viewBox="0 0 1024 1024" version="1.1" xmlns="http://www.w3.org/2000/svg" p-id="2876" xmlns:xlink="http://www.w3.org/1999/xlink" width="256" height="256"><path d="M824.32 655.36l-130.56-242.688-343.04-2.56L188.928 655.36H76.8v53.248h82.432v258.048h703.488v-258.048h73.728V655.36H824.32zM370.176 446.464l302.592 2.048 111.104 207.36h-111.104l-76.288-146.432-31.744 16.384 67.584 130.048H370.688l99.84-131.584-28.16-21.504L326.144 655.36H231.936l138.24-208.896z m457.216 485.376H195.072v-222.72h632.32V931.84zM506.88 374.784c83.456 0 151.552-68.096 151.552-151.552S590.336 72.192 506.88 72.192 355.328 140.288 355.328 223.744 423.424 374.784 506.88 374.784z m0-266.752c64 0 115.712 51.712 115.712 115.712S570.368 339.456 506.88 339.456 390.656 287.232 390.656 223.744 442.88 108.032 506.88 108.032z" p-id="2877" fill="#bfcbd9"></path></svg>